<?xml version="1.0" standalone="no"?>
<!DOCTYPE svg PUBLIC "-//W3C//DTD SVG 20010904//EN"
 "http://www.w3.org/TR/2001/REC-SVG-20010904/DTD/svg10.dtd">
<svg version="1.0" xmlns="http://www.w3.org/2000/svg"
 width="1920.000000pt" height="1080.000000pt" viewBox="0 0 1920.000000 1080.000000"
 preserveAspectRatio="xMidYMid meet">

<g transform="translate(0.000000,1080.000000) scale(0.100000,-0.100000)"
fill="#000000" stroke="none">
<path d="M6400 7855 c0 -8 7 -15 15 -15 12 0 15 -14 15 -70 0 -63 2 -70 20
-70 18 0 20 7 20 70 0 63 2 70 20 70 11 0 20 7 20 15 0 12 -13 15 -55 15 -42
0 -55 -3 -55 -15z"/>
<path d="M6640 7785 c0 -69 3 -85 15 -85 10 0 15 11 15 35 0 45 26 48 35 4 6
-27 29 -48 40 -37 3 2 0 20 -5 38 -6 22 -6 38 0 44 14 14 13 59 -2 74 -7 7
-31 12 -55 12 l-43 0 0 -85z m75 35 c0 -8 -10 -16 -22 -18 -18 -3 -23 2 -23
18 0 16 5 21 23 18 12 -2 22 -10 22 -18z"/>
<path d="M6900 7797 c0 -82 9 -97 57 -97 42 0 53 21 53 104 0 52 -3 66 -15 66
-12 0 -15 -15 -15 -71 0 -67 -1 -70 -22 -67 -21 3 -23 9 -26 71 -2 51 -6 67
-17 67 -12 0 -15 -16 -15 -73z"/>
<path d="M7140 7855 c0 -8 9 -15 20 -15 18 0 20 -7 20 -70 0 -56 3 -70 15 -70
12 0 15 14 15 70 0 63 2 70 20 70 11 0 20 7 20 15 0 12 -13 15 -55 15 -42 0
-55 -3 -55 -15z"/>
<path d="M7380 7785 c0 -69 3 -85 15 -85 10 0 15 11 15 35 0 31 3 35 25 35 22
0 25 -4 25 -35 0 -24 5 -35 15 -35 12 0 15 16 15 85 0 69 -3 85 -15 85 -11 0
-15 -11 -15 -36 0 -31 -3 -35 -22 -32 -18 2 -24 11 -26 36 -2 20 -9 32 -18 32
-11 0 -14 -18 -14 -85z"/>
<path d="M8890 7785 c0 -78 2 -85 20 -85 16 0 20 7 20 35 0 28 4 35 20 35 16
0 20 -7 20 -35 0 -29 4 -35 20 -35 20 0 21 5 18 82 -3 70 -6 83 -20 86 -15 3
-18 -4 -18 -32 0 -29 -4 -36 -20 -36 -16 0 -20 7 -20 35 0 28 -4 35 -20 35
-18 0 -20 -7 -20 -85z"/>
<path d="M9167 7852 c-22 -25 -23 -115 -1 -136 8 -9 28 -16 44 -16 37 0 60 32
60 85 0 22 -7 51 -16 63 -19 27 -64 29 -87 4z m63 -38 c17 -43 -7 -101 -32
-76 -11 11 -14 75 -3 91 11 18 25 12 35 -15z"/>
<path d="M9410 7785 c0 -78 2 -85 20 -85 15 0 20 7 20 29 0 24 5 30 30 35 42
8 59 46 36 81 -14 21 -24 25 -61 25 l-45 0 0 -85z m77 39 c3 -9 0 -20 -8 -25
-23 -14 -29 -11 -29 16 0 28 27 35 37 9z"/>
<path d="M9667 7863 c-4 -3 -7 -42 -7 -85 l0 -78 55 0 c42 0 55 3 55 15 0 10
-11 15 -35 15 -28 0 -35 4 -35 20 0 16 7 20 30 20 20 0 30 5 30 15 0 10 -10
15 -30 15 -42 0 -40 28 2 32 22 2 34 9 36 21 3 14 -4 17 -46 17 -27 0 -52 -3
-55 -7z"/>
<path d="M1160 7775 c0 -69 3 -85 15 -85 10 0 15 11 15 35 0 28 4 35 20 35 16
0 20 -7 20 -35 0 -24 5 -35 15 -35 12 0 15 16 15 86 0 64 -3 85 -12 82 -7 -3
-14 -19 -16 -36 -2 -24 -8 -32 -23 -32 -15 0 -19 7 -19 35 0 24 -5 35 -15 35
-12 0 -15 -16 -15 -85z"/>
<path d="M1426 7838 c-9 -12 -16 -41 -16 -63 0 -54 23 -85 61 -85 25 0 33 6
45 37 18 41 12 94 -12 118 -22 22 -60 19 -78 -7z m62 -61 c2 -37 -1 -49 -13
-54 -21 -7 -35 12 -35 49 0 39 10 59 29 56 11 -2 17 -16 19 -51z"/>
<path d="M1670 7776 c0 -96 17 -118 22 -28 l3 57 28 -57 c41 -86 57 -78 57 27
0 69 -3 85 -15 85 -11 0 -15 -12 -15 -47 l0 -46 -23 44 c-13 24 -31 45 -40 47
-15 3 -17 -8 -17 -82z"/>
<path d="M1946 7845 c-25 -25 -31 -83 -12 -121 13 -27 21 -34 45 -34 38 0 61
32 61 85 0 71 -53 111 -94 70z m58 -31 c16 -42 3 -94 -25 -94 -16 0 -19 8 -19
48 0 27 3 52 7 55 11 12 31 7 37 -9z"/>
<path d="M2190 7775 c0 -69 3 -85 15 -85 11 0 15 11 15 36 0 44 21 42 35 -4 6
-20 16 -32 27 -32 15 0 16 4 6 31 -8 22 -7 37 1 55 24 53 1 84 -60 84 l-39 0
0 -85z m73 41 c7 -18 -1 -26 -25 -26 -11 0 -18 7 -18 20 0 23 35 28 43 6z"/>
<path d="M3984 7839 c4 -13 12 -52 18 -86 9 -50 15 -63 29 -63 13 0 22 14 31
48 l14 47 12 -47 c22 -85 46 -59 71 76 6 36 5 46 -5 46 -13 0 -18 -11 -30 -75
-6 -37 -8 -38 -14 -15 -5 14 -8 40 -9 58 -1 24 -5 32 -20 32 -15 0 -22 -12
-32 -52 l-13 -53 -10 50 c-8 36 -16 51 -30 53 -16 3 -18 0 -12 -19z"/>
<path d="M4300 7775 c0 -78 2 -85 20 -85 18 0 20 7 20 85 0 78 -2 85 -20 85
-18 0 -20 -7 -20 -85z"/>
<path d="M4480 7775 l0 -85 45 0 c33 0 45 4 45 15 0 9 -9 15 -25 15 -24 0 -25
2 -25 70 0 63 -2 70 -20 70 -18 0 -20 -7 -20 -85z"/>
<path d="M4710 7775 l0 -85 45 0 c33 0 45 4 45 15 0 10 -10 15 -30 15 l-30 0
0 70 c0 56 -3 70 -15 70 -12 0 -15 -16 -15 -85z"/>
<path d="M10890 7790 c0 -54 -4 -72 -15 -76 -24 -9 -18 -34 8 -34 38 0 47 19
47 102 0 71 -2 78 -20 78 -18 0 -20 -7 -20 -70z"/>
<path d="M11070 7780 c0 -68 3 -81 19 -90 29 -15 67 -12 85 6 22 22 23 164 1
164 -11 0 -15 -17 -17 -72 -3 -65 -5 -73 -23 -73 -18 0 -20 8 -23 73 -3 64 -5
72 -22 72 -18 0 -20 -7 -20 -80z"/>
<path d="M11341 7834 c-12 -15 -21 -30 -21 -33 0 -17 33 -51 50 -51 24 0 36
-18 21 -33 -7 -7 -16 -6 -28 6 -22 19 -49 7 -40 -17 8 -19 49 -30 82 -22 49
12 45 87 -5 105 -31 10 -41 31 -15 31 8 0 15 -4 15 -10 0 -5 7 -7 15 -4 21 8
19 31 -4 44 -31 16 -48 12 -70 -16z"/>
<path d="M11567 7854 c-14 -14 -7 -34 13 -34 18 0 20 -7 20 -70 0 -63 2 -70
20 -70 18 0 20 7 20 70 0 64 2 70 21 70 14 0 19 5 17 18 -2 13 -15 18 -53 20
-28 2 -54 0 -58 -4z"/>
<path d="M11807 7853 c-4 -3 -7 -44 -7 -90 0 -76 2 -83 20 -83 19 0 20 7 20
90 0 68 -3 90 -13 90 -8 0 -17 -3 -20 -7z"/>
<path d="M12001 7834 c-28 -36 -29 -106 -1 -134 33 -33 100 -20 100 20 0 25
-28 26 -46 3 -12 -16 -15 -16 -24 -3 -17 25 -8 94 13 98 10 2 17 -3 17 -12 0
-9 8 -16 20 -16 26 0 27 31 2 53 -27 24 -58 21 -81 -9z"/>
<path d="M12240 7770 l0 -90 55 0 c48 0 55 2 55 20 0 16 -7 20 -35 20 -24 0
-35 5 -35 15 0 9 9 15 25 15 18 0 25 5 25 20 0 15 -7 20 -25 20 -16 0 -25 6
-25 15 0 10 11 15 35 15 28 0 35 4 35 20 0 18 -7 20 -55 20 l-55 0 0 -90z"/>
<path d="M13430 7760 c0 -83 1 -90 20 -90 16 0 20 7 20 35 0 31 3 35 25 35 16
0 25 6 25 15 0 9 -9 15 -25 15 -18 0 -25 5 -25 20 0 16 7 20 35 20 28 0 35 4
35 20 0 18 -7 20 -55 20 l-55 0 0 -90z"/>
<path d="M13670 7760 c0 -83 1 -90 20 -90 16 0 20 7 20 35 0 19 4 35 10 35 5
0 16 -16 24 -35 8 -19 22 -35 30 -35 19 0 20 10 4 45 -9 21 -9 31 0 46 18 29
15 67 -7 79 -11 5 -38 10 -60 10 l-41 0 0 -90z m78 33 c-5 -26 -38 -29 -38 -4
0 15 6 21 21 21 14 0 19 -5 17 -17z"/>
<path d="M13932 7763 l3 -88 53 -3 c47 -3 52 -1 52 17 0 17 -6 21 -35 21 -24
0 -35 5 -35 15 0 9 9 15 25 15 18 0 25 5 25 20 0 15 -7 20 -25 20 -16 0 -25 6
-25 15 0 10 11 15 35 15 28 0 35 4 35 20 0 18 -7 20 -55 20 l-56 0 3 -87z"/>
<path d="M14180 7760 l0 -90 50 0 c43 0 50 3 50 19 0 15 -8 21 -32 23 -42 4
-50 28 -9 28 24 0 31 4 31 20 0 16 -7 20 -30 20 -20 0 -30 5 -30 15 0 10 11
15 35 15 28 0 35 4 35 20 0 17 -7 20 -50 20 l-50 0 0 -90z"/>
<path d="M14420 7760 l0 -90 35 0 c52 0 85 36 85 92 0 24 -4 48 -8 54 -12 19
-49 34 -81 34 l-31 0 0 -90z m79 28 c11 -30 -1 -72 -22 -76 -14 -3 -17 5 -17
47 0 39 4 51 15 51 9 0 19 -10 24 -22z"/>
<path d="M14702 7834 c-18 -12 -22 -25 -22 -67 0 -84 43 -121 96 -83 15 12 19
27 19 76 0 49 -4 64 -19 76 -25 18 -46 18 -74 -2z m58 -49 c12 -31 -3 -75 -25
-75 -11 0 -15 12 -15 50 0 38 4 50 15 50 9 0 20 -11 25 -25z"/>
<path d="M14942 7763 c2 -58 7 -88 16 -91 9 -3 12 12 12 54 0 66 7 66 24 -3
17 -67 37 -63 56 12 l15 60 3 -63 c3 -53 6 -63 20 -60 14 3 17 18 20 91 l3 87
-31 0 c-17 0 -32 -6 -34 -12 -2 -7 -8 -29 -13 -48 l-10 -35 -13 48 c-11 42
-15 47 -42 47 l-29 0 3 -87z"/>
<path d="M16350 7765 l0 -85 50 0 c38 0 50 4 50 15 0 10 -11 15 -35 15 -28 0
-35 4 -35 20 0 16 7 20 30 20 20 0 30 5 30 15 0 10 -10 15 -30 15 -23 0 -30 4
-30 20 0 16 7 20 35 20 24 0 35 5 35 15 0 11 -12 15 -50 15 l-50 0 0 -85z"/>
<path d="M16590 7765 c0 -69 3 -85 15 -85 12 0 15 14 16 63 l1 62 15 -62 c9
-39 20 -63 28 -63 8 0 19 24 28 63 l15 62 1 -62 c1 -56 3 -63 21 -63 18 0 20
7 20 85 l0 85 -29 0 c-26 0 -30 -5 -41 -47 l-12 -48 -14 48 c-12 40 -18 47
-39 47 -25 0 -25 -1 -25 -85z"/>
<path d="M16900 7765 c0 -50 4 -85 10 -85 6 0 10 14 10 30 0 25 4 30 24 30 32
0 56 25 56 59 0 37 -17 51 -62 51 l-38 0 0 -85z m65 30 c0 -13 -8 -21 -22 -23
-19 -3 -23 1 -23 23 0 22 4 26 23 23 14 -2 22 -10 22 -23z"/>
<path d="M17160 7808 c-6 -24 -15 -56 -20 -72 -6 -16 -10 -35 -10 -42 0 -21
21 -16 27 6 4 13 14 20 30 20 16 0 27 -7 30 -20 3 -11 12 -20 20 -20 16 0 13
26 -15 118 -20 67 -46 71 -62 10z m40 -45 c0 -7 -6 -13 -14 -13 -9 0 -12 8 -8
26 3 19 7 22 13 12 5 -7 9 -19 9 -25z"/>
<path d="M17370 7835 c0 -8 9 -15 20 -15 18 0 20 -7 20 -70 0 -56 3 -70 15
-70 12 0 15 14 15 70 0 63 2 70 20 70 11 0 20 7 20 15 0 12 -13 15 -55 15 -42
0 -55 -3 -55 -15z"/>
<path d="M17610 7765 c0 -69 3 -85 15 -85 10 0 15 11 15 35 0 31 3 35 25 35
22 0 25 -4 25 -35 0 -24 5 -35 15 -35 12 0 15 16 15 85 0 67 -3 85 -14 85 -9
0 -16 -12 -18 -32 -2 -25 -8 -34 -25 -36 -20 -3 -23 1 -23 32 0 25 -4 36 -15
36 -12 0 -15 -16 -15 -85z"/>
<path d="M17856 7828 c3 -13 13 -35 20 -50 8 -15 14 -43 14 -63 0 -24 4 -35
15 -35 10 0 15 10 15 34 0 19 9 55 20 81 24 55 24 55 6 55 -7 0 -17 -15 -23
-32 l-9 -33 -17 33 c-20 38 -52 45 -41 10z"/>
<path d="M3339 6176 c-94 -125 -145 -203 -165 -251 -16 -38 -81 -150 -146
-247 -64 -97 -142 -215 -172 -262 -31 -47 -58 -86 -61 -86 -5 0 -27 49 -39 87
-5 15 26 66 126 209 73 104 153 207 176 229 42 39 266 394 255 405 -12 12
-293 -333 -309 -380 -12 -34 -222 -341 -260 -380 -36 -37 -7 20 76 149 108
167 116 184 74 154 -121 -89 -254 -206 -286 -252 -44 -63 -42 -78 5 -34 31 29
98 73 111 73 12 0 6 -21 -15 -50 -17 -22 -20 -36 -15 -63 6 -31 -1 -46 -54
-131 -33 -52 -60 -104 -60 -114 0 -10 11 -47 25 -81 25 -66 25 -71 -8 -108
-15 -16 -27 -21 -48 -16 -36 7 -99 -30 -99 -59 0 -16 -4 -19 -22 -13 -13 3
-45 12 -73 19 -27 7 -68 23 -90 35 -22 11 -44 21 -50 22 -5 0 -57 33 -115 73
-101 69 -105 74 -104 107 2 32 26 128 74 299 12 41 28 100 37 130 8 30 19 65
24 77 5 13 11 52 15 89 4 41 12 68 20 71 21 8 17 20 -7 26 -16 4 -20 11 -16
27 8 29 -23 57 -70 65 -50 8 -93 25 -93 36 0 5 9 9 19 9 11 0 23 5 26 10 10
16 -125 11 -170 -6 -22 -9 -64 -19 -93 -23 -45 -6 -59 -14 -102 -56 -28 -27
-50 -54 -50 -60 0 -5 -7 -23 -16 -40 -12 -22 -17 -61 -19 -143 -2 -62 -6 -116
-9 -119 -16 -16 -4 -108 20 -160 21 -45 25 -64 20 -102 -8 -62 -34 -83 -137
-111 -46 -12 -123 -42 -171 -66 -48 -24 -109 -49 -135 -54 -50 -12 -224 -113
-260 -152 -46 -51 -58 -89 -58 -184 l0 -91 -46 -59 c-70 -89 -82 -118 -90
-221 -6 -90 -8 -94 -53 -154 -25 -34 -50 -77 -56 -95 -7 -19 -15 -34 -19 -34
-4 0 -17 21 -28 48 -28 64 -29 28 -2 -98 11 -52 24 -126 29 -165 7 -47 21 -92
45 -139 20 -38 34 -70 32 -72 -2 -2 -38 19 -80 47 -76 49 -143 123 -182 199
-29 56 -29 18 1 -52 35 -84 96 -176 181 -273 74 -83 127 -127 203 -165 66 -33
177 -119 243 -189 31 -33 73 -67 91 -75 19 -8 39 -24 46 -35 9 -19 20 -21 89
-21 l79 0 6 108 c3 59 8 135 10 170 2 34 1 62 -1 62 -3 0 -18 -11 -35 -25 -16
-14 -35 -25 -42 -25 -27 0 -98 107 -129 195 -8 22 -31 74 -51 116 -20 42 -36
89 -36 105 -1 16 -9 54 -20 84 -30 84 -27 96 34 156 30 29 64 65 75 80 12 15
23 25 24 23 2 -2 20 -39 40 -83 28 -59 56 -98 111 -155 65 -66 79 -87 105
-159 17 -46 31 -92 31 -103 0 -29 14 -23 71 29 l52 48 -27 59 c-21 43 -28 75
-30 123 -1 64 0 66 33 85 30 18 38 19 80 8 75 -20 91 -42 91 -127 0 -52 -4
-75 -16 -84 -9 -9 -14 -26 -12 -48 2 -28 8 -37 28 -43 86 -26 125 -47 143 -76
21 -36 38 -123 42 -208 1 -33 7 -71 13 -85 5 -14 13 -62 17 -105 13 -136 -7
-125 221 -125 l197 0 -7 43 c-15 106 -27 255 -21 284 3 18 1 42 -6 54 -7 14
-11 83 -10 195 1 162 2 178 26 234 14 33 25 71 25 84 0 14 8 38 18 54 l17 29
30 -19 c17 -10 37 -18 46 -18 15 0 47 -27 153 -128 64 -62 95 -82 128 -82 19
0 45 -15 81 -47 134 -119 307 -236 325 -218 4 3 -1 11 -10 16 -37 21 -158 215
-158 253 0 7 9 16 19 19 14 3 20 17 24 48 3 24 9 64 14 89 l8 45 31 -50 c17
-28 53 -89 79 -137 25 -49 51 -88 57 -88 16 0 1 138 -22 202 -59 167 -127 292
-175 324 -29 19 -246 305 -269 354 -18 41 -45 135 -56 199 -5 31 -15 50 -34
63 -31 24 -32 31 -6 68 16 22 34 31 76 40 l56 12 74 114 c61 95 78 114 99 114
18 0 34 14 66 60 23 32 47 56 52 53 5 -3 7 -36 5 -75 -3 -38 -2 -66 2 -61 22
23 69 185 74 251 3 39 3 72 1 72 -2 0 -45 -59 -96 -131 -51 -73 -95 -127 -97
-121 -5 15 254 399 279 414 19 12 175 315 166 324 -7 8 -217 -281 -217 -300 0
-11 -64 -120 -143 -241 -128 -197 -145 -220 -175 -226 -17 -3 -32 -3 -32 2 0
4 77 131 171 281 105 168 191 294 223 328 91 94 251 395 234 439 -2 4 -64 -73
-139 -173z m-589 -836 l21 -40 -28 -47 -27 -47 -22 50 c-13 27 -23 51 -23 54
-2 11 39 70 49 70 5 0 19 -18 30 -40z m-86 -93 c20 -53 20 -52 -1 -83 -16 -25
-17 -25 -30 -8 -20 27 -14 134 7 134 4 0 15 -19 24 -43z m226 10 c0 -25 -50
-67 -80 -67 -17 0 -30 4 -30 9 0 20 38 53 70 61 19 4 36 8 38 9 1 1 2 -5 2
-12z m-82 -151 c-13 -19 -34 -38 -48 -41 -14 -3 -33 -8 -42 -11 -54 -16 22 75
77 93 39 13 42 3 13 -41z m-620 -1655 l43 -81 -33 -47 -32 -48 -7 35 c-8 36
-31 60 -60 60 -25 0 -61 -50 -56 -77 6 -31 -3 -29 -43 12 l-33 34 18 48 c23
62 62 140 88 177 l21 29 26 -31 c14 -17 45 -67 68 -111z"/>
<path d="M11487 6295 c-12 -29 -36 -224 -46 -365 -21 -293 -23 -396 -11 -535
7 -77 13 -149 14 -161 1 -14 -40 -67 -117 -152 -100 -111 -125 -133 -160 -143
-101 -27 -205 -114 -226 -189 -7 -25 -17 -58 -24 -75 -17 -45 -14 -141 7 -225
13 -51 18 -105 17 -170 -2 -132 -16 -189 -57 -246 -46 -65 -117 -295 -99 -324
8 -13 94 26 126 56 26 25 42 76 55 180 7 59 8 60 52 97 41 33 102 36 148 8 34
-21 88 -107 73 -117 -5 -3 -32 -51 -59 -107 -69 -141 -98 -171 -141 -144 -17
10 -22 9 -34 -6 -13 -19 -10 -53 7 -63 6 -4 21 0 35 7 20 11 28 11 45 0 18
-11 22 -11 30 2 7 13 16 10 60 -19 29 -19 55 -34 58 -34 11 0 66 -145 75 -199
7 -45 36 -88 52 -78 6 4 23 32 38 64 25 49 27 61 18 94 -7 27 -6 62 4 125 8
48 11 94 8 101 -3 10 -18 14 -47 11 -34 -2 -43 0 -46 15 -2 12 3 17 20 17 13
1 34 7 48 15 34 19 37 19 36 -7 -1 -17 4 -23 19 -21 19 1 19 1 3 -11 -21 -15
-24 -45 -5 -48 6 0 17 -2 22 -3 6 -2 16 -3 23 -4 6 0 12 -9 12 -18 0 -10 11
-38 25 -62 31 -53 31 -74 3 -128 -20 -38 -21 -46 -10 -87 11 -44 10 -49 -25
-121 -20 -41 -35 -76 -33 -79 3 -2 25 0 50 4 70 14 153 11 174 -5 16 -12 68
-15 293 -15 l273 0 0 -485 0 -485 300 0 301 0 -3 98 -3 97 -197 3 -198 2 0
105 0 105 155 0 155 0 0 95 0 94 -152 3 -153 3 -3 97 -3 98 198 2 198 3 0 95
0 95 -61 5 c-53 4 -65 9 -86 35 -41 51 -90 137 -81 145 4 4 25 13 45 19 61 20
121 74 157 141 18 34 31 64 28 67 -3 2 -30 -16 -61 -41 -51 -42 -131 -76 -178
-76 -15 0 -16 3 -6 26 9 19 34 36 85 59 114 53 158 87 198 159 31 56 44 96 30
96 -2 0 -25 -20 -49 -44 -41 -40 -171 -104 -184 -91 -2 2 -2 15 2 29 4 18 25
35 77 62 101 53 163 113 188 180 12 30 21 65 21 77 0 18 -9 12 -56 -36 -38
-41 -76 -68 -120 -88 -65 -30 -84 -30 -84 -3 0 8 -9 33 -20 55 -16 31 -19 50
-14 89 6 42 2 60 -21 111 -37 84 -59 213 -47 281 10 51 -5 146 -27 172 -22 26
-51 126 -51 173 0 40 -5 58 -25 81 -16 19 -25 41 -23 59 2 30 -17 73 -31 73
-5 0 -32 29 -61 65 -41 52 -60 67 -93 76 -23 6 -56 24 -74 39 -50 45 -140 103
-230 149 -113 59 -123 76 -123 217 0 101 -25 322 -49 439 -5 28 -17 91 -26
140 -20 106 -53 215 -66 215 -5 0 -9 -73 -9 -169 l0 -168 -72 1 c-40 0 -85 -2
-99 -6 -27 -8 -27 -7 -39 59 -6 37 -14 114 -17 171 -6 98 -14 129 -26 97z
m283 -805 c0 -5 -8 -10 -17 -10 -15 0 -16 2 -3 10 19 12 20 12 20 0z m-187
-17 c-7 -2 -19 -2 -25 0 -7 3 -2 5 12 5 14 0 19 -2 13 -5z m202 -628 c32 -25
72 -85 56 -85 -5 0 -13 5 -16 10 -18 29 -130 -14 -150 -58 -10 -23 -29 -29
-40 -12 -14 23 -67 10 -101 -25 -18 -19 -42 -35 -53 -35 -11 0 -23 -5 -26 -10
-4 -7 -13 -6 -26 1 -11 6 -27 8 -34 5 -8 -3 -23 7 -35 24 -24 34 -54 38 -82
13 -18 -16 -19 -16 -24 4 -7 27 -32 37 -50 22 -11 -9 -14 -8 -14 5 0 25 102
126 128 126 13 0 20 -5 17 -12 -6 -16 3 -30 35 -51 26 -18 90 -23 90 -7 0 6 9
6 26 0 21 -9 37 -4 95 26 39 21 80 50 92 65 18 23 27 27 52 23 17 -4 44 -16
60 -29z"/>
<path d="M6965 6220 c-11 -5 -33 -9 -48 -9 -36 -1 -103 -35 -134 -69 -57 -61
-113 -144 -113 -166 0 -34 -15 -71 -38 -93 -11 -10 -25 -42 -32 -72 -12 -52
-12 -55 10 -71 26 -20 22 -42 -18 -103 -21 -31 -24 -43 -16 -65 7 -20 5 -42
-8 -86 -10 -32 -16 -67 -13 -77 4 -13 -1 -19 -25 -24 -16 -4 -30 -10 -30 -15
0 -4 -17 -11 -37 -15 -50 -9 -94 -37 -114 -72 -32 -53 -79 -255 -79 -334 0
-139 -45 -452 -77 -534 -11 -27 -18 -88 -21 -185 -2 -80 -9 -153 -14 -163 -6
-11 -6 -23 0 -30 8 -10 23 -180 37 -412 1 -33 8 -73 14 -88 6 -16 11 -47 11
-71 0 -91 54 -208 99 -214 15 -3 28 -16 38 -40 20 -47 57 -82 88 -82 23 0 24
3 23 53 0 28 5 81 12 117 7 36 18 107 24 158 l13 94 -24 9 c-32 12 -33 12 -33
-9 0 -28 -10 -33 -33 -17 -11 8 -21 27 -23 42 -5 58 -18 89 -55 134 -22 26
-39 51 -39 57 0 5 16 33 35 62 32 48 35 58 35 125 0 41 5 77 10 80 6 4 8 21 5
38 -4 18 3 78 14 134 12 57 21 140 21 190 0 68 6 106 24 160 13 38 27 88 31
111 12 75 36 55 39 -33 1 -22 5 -45 8 -50 14 -23 39 -213 34 -252 -6 -46 9
-60 20 -18 3 14 10 25 15 25 5 0 9 13 9 30 0 44 18 74 55 94 32 18 34 18 64
-5 18 -13 34 -35 37 -49 7 -32 35 -90 44 -90 8 0 19 -45 24 -96 1 -16 6 -36
10 -42 4 -7 3 -12 -3 -12 -5 0 -13 5 -16 10 -10 17 -26 11 -23 -8 2 -11 -3
-26 -10 -35 -10 -12 -11 -24 -5 -44 8 -23 16 -27 52 -30 59 -4 121 -47 141
-99 8 -22 27 -55 41 -74 47 -61 77 -132 68 -157 -9 -25 -71 -106 -125 -165
l-35 -38 16 -87 c21 -124 20 -182 -5 -208 -17 -18 -19 -30 -14 -64 l7 -41 323
0 324 0 0 61 c0 77 20 199 33 199 5 0 6 -11 3 -24 -8 -32 2 -56 24 -56 26 0
41 24 45 72 3 47 19 62 28 26 12 -45 -5 -138 -33 -180 -23 -34 -25 -44 -16
-64 15 -33 27 -30 69 17 67 78 114 209 97 269 -6 19 -10 87 -9 150 1 63 -6
193 -16 289 -9 96 -15 186 -12 200 3 13 1 32 -4 40 -4 9 -15 71 -23 138 -9 73
-26 157 -44 210 -17 48 -37 130 -47 181 -9 51 -23 112 -32 135 -9 26 -16 85
-18 157 -2 97 -8 130 -34 211 -40 124 -63 157 -134 192 -31 16 -57 34 -57 41
0 8 -7 20 -16 27 -13 11 -15 26 -11 75 5 50 2 68 -15 100 -32 61 -57 163 -64
270 -4 55 -14 115 -22 134 -18 45 -167 198 -209 216 -36 16 -68 17 -98 4z m91
-296 c22 -10 52 -20 69 -23 16 -4 31 -14 33 -23 2 -12 -13 -20 -65 -32 -38
-10 -74 -21 -81 -25 -7 -4 -37 4 -70 19 -31 15 -72 31 -90 35 -31 6 -32 8 -19
28 11 17 28 23 73 28 102 10 111 9 150 -7z m-4 -901 c27 -26 28 -30 28 -131
l0 -105 -32 27 c-138 110 -148 116 -203 116 -50 0 -59 -4 -112 -48 -32 -27
-64 -56 -72 -65 -7 -10 -17 -17 -22 -17 -14 0 -39 31 -39 50 0 23 103 125 150
149 81 42 163 34 225 -20 51 -46 90 -18 50 35 -32 42 -14 48 27 9z m70 -38
c16 -35 34 -37 86 -11 97 49 198 43 246 -15 25 -29 37 -99 18 -99 -5 0 -23 21
-41 46 l-33 47 -65 -6 c-74 -7 -83 -12 -170 -92 l-63 -57 0 92 c0 69 -4 97
-17 117 -17 26 -17 26 5 14 13 -7 28 -23 34 -36z m310 -100 c40 -53 43 -62 29
-84 -7 -11 -16 -6 -43 24 -56 65 -56 65 -120 65 -69 0 -75 17 -12 37 74 23
104 14 146 -42z m-535 24 l28 -11 -45 -16 c-26 -8 -73 -40 -112 -73 -62 -55
-68 -58 -92 -48 -14 7 -26 17 -26 23 0 14 100 102 137 121 34 18 72 19 110 4z
m429 -33 c26 -4 46 -16 74 -48 22 -24 39 -48 40 -54 0 -25 -32 -22 -71 6 -22
16 -54 32 -70 35 -59 13 -107 -45 -111 -134 -1 -28 -5 -51 -8 -51 -6 1 -63 77
-79 108 -12 22 -8 28 51 88 60 59 67 63 101 59 20 -3 53 -7 73 -9z m-314 -49
c43 -34 67 -59 67 -73 1 -12 -16 -43 -36 -70 l-38 -49 -5 45 c-7 54 -32 96
-71 116 -39 20 -42 19 -108 -26 -58 -40 -85 -48 -96 -31 -8 13 108 113 147
128 54 20 70 15 140 -40z m462 -362 c8 -38 16 -88 16 -110 1 -53 40 -189 81
-290 11 -27 76 -329 83 -387 4 -27 0 -61 -8 -84 l-13 -39 -27 86 c-20 66 -26
106 -26 180 0 61 -5 103 -14 121 -8 16 -10 30 -5 35 6 6 0 31 -14 64 -13 30
-32 79 -41 109 -10 30 -29 65 -43 78 -27 24 -43 69 -43 119 0 17 -4 35 -10 38
-15 9 -12 97 5 145 8 23 15 63 16 89 l1 46 13 -65 c7 -36 20 -96 29 -135z"/>
<path d="M6985 5890 c-8 -13 3 -30 20 -30 19 0 26 27 9 34 -21 8 -22 8 -29 -4z"/>
<path d="M9438 6175 c-3 -4 -44 -10 -100 -14 -3 -1 -20 -13 -37 -27 -25 -21
-34 -24 -45 -14 -11 9 -21 8 -43 -3 -51 -27 -129 -123 -142 -175 -23 -91 -12
-346 19 -417 33 -78 42 -111 52 -180 14 -106 11 -116 -42 -130 -25 -7 -70 -22
-100 -34 -30 -11 -63 -21 -73 -21 -10 0 -30 -9 -44 -20 -14 -11 -41 -20 -60
-20 -43 0 -64 -11 -131 -67 -88 -75 -132 -191 -132 -349 0 -70 -6 -104 -26
-159 -14 -38 -29 -90 -34 -115 -17 -84 -65 -199 -89 -214 -30 -19 -137 -423
-117 -443 3 -3 14 14 25 39 23 54 46 78 74 78 46 0 100 23 138 57 37 34 40 39
34 74 -11 62 24 101 55 64 21 -25 -4 -44 -33 -26 -20 13 -21 13 -8 -2 17 -21
47 -22 59 -2 7 13 10 12 20 -10 13 -28 43 -33 62 -10 7 8 16 12 21 9 21 -12 6
13 -17 29 -17 13 -34 16 -53 12 -19 -4 -32 -1 -40 9 -8 10 -29 15 -56 14 -23
0 -51 5 -61 11 -15 9 -11 10 22 5 41 -6 41 -6 48 27 3 19 15 49 27 68 20 33
20 33 77 26 84 -10 95 -20 96 -90 1 -54 3 -60 25 -65 40 -9 38 -30 -3 -30 -31
0 -38 -5 -54 -38 -11 -20 -26 -50 -35 -66 -20 -36 -10 -53 55 -95 67 -44 72
-61 77 -244 1 -48 6 -62 26 -83 21 -21 26 -35 25 -77 -1 -29 0 -98 2 -155 3
-96 2 -104 -19 -124 -13 -12 -23 -25 -23 -30 0 -4 25 -8 55 -8 l55 0 0 -490 0
-490 300 0 300 0 0 100 0 100 -195 0 -195 0 0 105 0 105 150 0 150 0 0 95 0
95 -150 0 -150 0 0 100 0 100 195 0 195 0 0 90 0 90 176 0 175 0 -6 48 c-10
72 -45 224 -58 252 -16 35 -39 158 -53 281 -5 40 -2 53 23 89 15 24 36 54 45
68 17 26 101 270 113 331 l7 34 28 -51 c15 -27 37 -63 49 -80 51 -73 60 -108
60 -261 0 -137 2 -146 26 -182 17 -27 24 -50 23 -78 -1 -22 3 -46 9 -53 33
-41 20 -256 -18 -307 -10 -14 -22 -41 -25 -58 l-6 -33 156 0 c168 0 172 1 144
53 -7 13 -10 54 -9 102 3 79 3 113 0 138 -3 26 22 162 31 171 14 14 12 212 -4
341 -9 71 -25 140 -45 195 -17 47 -40 123 -51 170 -11 47 -24 103 -30 125 -5
22 -12 57 -15 77 -3 20 -15 58 -27 84 -11 27 -24 81 -29 122 -18 162 -136 319
-278 373 -30 11 -65 29 -79 39 -13 11 -38 20 -55 20 -17 0 -51 13 -76 29 -39
24 -84 43 -138 57 -7 2 -26 22 -43 45 -39 54 -41 108 -5 151 14 16 25 42 25
57 0 15 5 32 11 38 5 5 13 37 16 69 3 32 12 72 20 88 19 36 21 151 5 231 -6
33 -29 94 -50 135 -34 68 -42 77 -92 102 -56 27 -73 32 -82 23z m155 -1269
l55 -83 -66 -64 c-37 -35 -56 -52 -44 -38 29 33 28 40 -12 103 -42 65 -106
100 -217 117 -140 22 -259 0 -259 -46 0 -28 118 -64 211 -65 107 0 189 -44
214 -115 l15 -40 -171 -167 -171 -167 -118 137 c-65 75 -144 179 -176 230
l-57 94 94 94 94 94 276 0 276 0 56 -84z m-884 -835 c17 -11 7 -41 -12 -41 -8
0 -20 7 -28 16 -10 13 -10 17 2 25 17 11 21 11 38 0z"/>
<path d="M8982 4954 c-17 -9 -59 -45 -92 -80 -55 -59 -59 -66 -48 -89 15 -33
28 -32 28 3 0 38 30 83 86 127 81 64 82 66 26 39z"/>
<path d="M9420 4939 c51 -23 93 -22 98 4 3 15 -5 17 -70 17 l-73 0 45 -21z"/>
<path d="M9543 4894 c7 -68 36 -128 54 -113 20 17 16 33 -23 101 l-36 63 5
-51z"/>
<path d="M8930 4661 c21 -40 102 -113 148 -132 84 -36 217 -15 210 33 -4 28
-50 45 -163 59 -111 13 -166 27 -189 47 -18 16 -18 16 -6 -7z"/>
<path d="M9096 4471 c-3 -4 11 -20 31 -34 l36 -26 44 30 c23 17 43 32 43 34 0
9 -149 5 -154 -4z"/>
<path d="M4467 6103 c-15 -7 -48 -16 -73 -20 -75 -10 -105 -37 -151 -132 l-40
-85 14 -79 c10 -61 11 -83 2 -94 -9 -10 -9 -30 0 -83 11 -58 18 -74 44 -96 28
-24 31 -31 35 -104 2 -43 1 -112 -2 -153 l-7 -73 -37 -13 c-20 -7 -71 -30
-113 -51 -75 -37 -76 -37 -177 -32 -88 4 -109 2 -167 -19 -85 -30 -168 -97
-215 -174 -53 -87 -64 -126 -57 -210 6 -70 6 -72 -29 -120 -79 -110 -98 -186
-73 -294 8 -37 6 -55 -15 -120 -37 -114 -42 -176 -17 -231 11 -25 21 -64 21
-88 0 -50 79 -223 113 -247 35 -25 73 -18 114 19 27 24 58 39 108 51 39 10 86
26 105 35 36 19 110 87 110 102 0 14 30 9 36 -7 11 -28 23 -15 34 38 9 41 18
56 42 72 17 11 36 29 42 40 6 11 21 33 34 48 25 33 28 65 7 81 -25 19 -54 126
-42 159 20 59 104 84 162 48 26 -15 33 -28 43 -82 7 -35 11 -71 8 -79 -6 -17
104 -96 152 -110 49 -14 88 -38 121 -75 17 -20 31 -40 31 -45 0 -5 10 -20 23
-33 98 -106 114 -155 77 -232 -11 -22 -19 -45 -20 -50 0 -13 -88 -105 -100
-105 -15 0 -42 -73 -35 -95 3 -11 16 -67 29 -125 l22 -105 273 -3 272 -2 -1
-78 c-1 -42 -1 -83 -1 -89 1 -10 28 -13 101 -13 l100 0 0 -395 0 -395 105 0
105 0 0 395 0 395 100 0 100 0 0 90 0 90 59 0 c33 0 63 4 66 10 10 16 -61 277
-119 439 -53 147 -57 155 -120 222 -91 96 -102 122 -119 277 -14 124 -17 135
-57 204 -23 40 -42 82 -42 93 1 11 4 68 8 126 8 133 -7 192 -73 279 -60 80
-110 116 -181 130 -72 14 -236 95 -323 159 l-66 49 -7 108 c-4 60 -8 151 -9
202 -2 87 -1 92 18 90 24 -4 39 25 56 109 13 61 12 64 -11 95 -20 27 -25 46
-26 105 -1 48 -6 80 -17 97 -10 14 -17 33 -17 43 0 31 -25 57 -97 99 -58 35
-79 42 -139 46 -49 4 -79 1 -97 -9z m-23 -399 c31 -12 15 -25 -26 -22 -49 4
-66 28 -20 28 17 0 37 -3 46 -6z m274 -6 c-5 -15 -78 -24 -78 -9 0 12 18 19
53 20 19 1 27 -3 25 -11z m61 -764 c57 -12 32 -19 -54 -15 -92 3 -125 -3 -108
-20 8 -8 7 -18 -2 -36 -15 -29 -10 -55 16 -79 12 -11 17 -25 13 -39 -5 -21 -1
-22 72 -28 131 -12 194 -9 194 7 0 8 -5 18 -11 22 -8 4 -8 9 0 17 20 20 11 49
-25 84 -44 41 -35 64 14 39 62 -32 96 -108 67 -152 -46 -71 -200 -85 -304 -28
-153 83 -127 233 40 234 31 0 71 -3 88 -6z m45 -88 c31 -20 35 -61 7 -76 -28
-15 -87 -12 -121 5 -38 19 -47 50 -23 77 15 16 27 19 65 16 26 -3 58 -12 72
-22z m534 -1535 c33 -54 68 -111 78 -126 l17 -26 -64 3 -64 3 -17 65 c-15 59
-24 180 -14 180 3 0 32 -45 64 -99z"/>
<path d="M17203 5929 c-88 -17 -169 -83 -201 -163 -9 -23 -31 -70 -49 -105
-39 -75 -40 -82 -13 -106 29 -26 49 -71 43 -95 -7 -25 -35 -25 -92 0 -50 23
-80 26 -85 8 -2 -7 -9 -59 -15 -116 l-12 -103 46 -92 c29 -59 44 -99 39 -110
-3 -10 -25 -27 -48 -39 -22 -11 -50 -29 -61 -39 -11 -10 -45 -41 -75 -68 -60
-54 -88 -114 -109 -232 -7 -38 -23 -74 -51 -115 -33 -48 -43 -73 -51 -129 -24
-174 -58 -245 -169 -351 -79 -76 -120 -161 -150 -311 -13 -62 -27 -113 -32
-113 -32 0 -102 56 -219 174 -103 105 -143 139 -177 150 -33 12 -44 12 -48 3
-2 -7 -3 -199 -2 -427 l3 -415 422 -3 422 -2 3 -383 c3 -378 3 -383 27 -435
30 -67 104 -134 168 -153 49 -14 188 -19 233 -8 92 24 167 82 203 159 21 44
22 58 22 445 l0 400 -45 3 c-35 2 -51 9 -70 32 -20 23 -40 31 -106 44 -45 9
-91 16 -102 16 -21 0 -21 -2 9 -50 36 -59 53 -70 108 -70 l41 0 0 -340 c0
-378 -2 -393 -62 -430 -64 -39 -166 -18 -200 42 -10 17 -14 107 -16 376 l-3
352 40 0 c50 0 53 12 6 29 -20 7 -45 26 -57 42 -12 16 -37 38 -56 49 -27 16
-33 25 -30 48 2 20 9 28 28 30 14 2 54 15 90 29 51 20 75 24 117 20 62 -6 68
4 16 27 -21 9 -51 23 -66 31 -37 19 -71 19 -87 0 -7 -9 -18 -14 -24 -12 -13 5
-73 -28 -98 -54 -10 -10 -32 -17 -52 -17 -32 0 -36 3 -35 27 2 49 14 72 64
122 27 27 56 68 65 91 13 36 20 43 41 41 13 -1 37 8 53 22 24 19 27 26 17 38
-9 12 -9 16 0 19 9 3 8 9 -1 25 -11 18 -10 26 10 58 22 35 112 115 130 115 5
0 3 -15 -4 -32 -7 -18 -16 -52 -19 -75 -7 -60 16 -86 101 -114 37 -12 86 -35
110 -51 26 -18 49 -27 61 -23 26 8 33 -16 26 -94 -3 -36 -1 -91 5 -121 6 -30
13 -68 17 -85 3 -16 16 -53 28 -80 13 -28 27 -63 30 -78 l7 -27 364 0 364 0 0
-485 0 -485 290 0 c160 0 293 -1 298 -2 4 -2 8 43 10 99 l3 103 -196 0 -195 0
0 105 0 105 150 0 150 0 0 95 0 95 -150 0 -150 0 0 100 0 100 195 0 195 0 1
93 c1 50 0 108 -1 127 -6 105 -1 323 9 374 18 96 14 379 -5 424 -9 20 -16 58
-15 83 1 25 -5 58 -14 75 -8 16 -15 37 -15 46 0 9 -11 29 -24 43 -20 22 -23
31 -15 52 9 25 2 47 -31 90 -14 18 -15 33 -8 103 9 79 8 82 -16 101 -13 11
-30 36 -36 57 -20 60 -101 223 -136 272 -47 66 -148 121 -234 127 -36 2 -78
10 -95 17 -16 7 -48 21 -69 30 -50 22 -86 55 -86 81 0 11 16 46 37 79 24 40
38 75 41 108 4 43 1 55 -32 103 -39 60 -75 89 -103 83 -10 -2 -29 -20 -42 -41
-23 -35 -28 -38 -65 -35 -35 3 -41 7 -48 33 -4 17 -5 71 -2 120 5 76 2 99 -15
149 -26 74 -61 120 -119 157 -41 26 -54 29 -126 28 -45 -1 -100 -5 -123 -10z
m-233 -939 c27 -27 25 -52 -7 -91 -32 -38 -86 -63 -116 -53 -55 17 -72 62 -41
110 36 54 126 72 164 34z m585 -4 c69 -29 55 -110 -23 -134 -37 -12 -46 -12
-79 5 -77 37 -44 141 45 143 12 0 38 -6 57 -14z m-418 -391 c21 -9 46 -23 56
-33 31 -28 57 -88 57 -132 0 -174 -213 -245 -323 -108 -69 87 -35 222 67 269
50 23 95 24 143 4z m-393 -671 c10 -45 -3 -68 -64 -109 -62 -42 -130 -78 -130
-70 0 11 43 90 70 130 15 22 40 64 55 94 l28 53 17 -33 c10 -19 21 -48 24 -65z"/>
<path d="M17002 4573 c-74 -36 -114 -142 -79 -209 30 -57 72 -87 130 -92 101
-8 167 46 175 144 10 125 -115 212 -226 157z m47 -30 c-1 -16 -4 -39 -8 -52
l-7 -24 -15 24 c-27 41 -29 58 -11 68 29 18 42 12 41 -16z m99 13 c5 -6 -78
-85 -91 -86 -4 0 -5 11 -2 25 17 83 13 78 52 72 19 -4 38 -9 41 -11z m-145
-71 l26 -45 -50 0 c-38 0 -49 4 -49 15 0 21 28 75 39 75 5 0 21 -20 34 -45z
m191 18 c17 -33 24 -72 13 -73 -4 -1 -40 2 -79 6 l-72 7 48 43 c26 24 54 44
62 44 7 0 20 -12 28 -27z m-197 -133 l-23 -53 -22 28 c-12 15 -22 38 -22 51 0
20 6 23 43 26 23 2 43 3 45 2 1 0 -8 -25 -21 -54z m197 41 c15 -1 17 -6 11
-28 -3 -16 -15 -37 -26 -48 -20 -20 -20 -20 -64 27 -25 26 -45 51 -45 56 0 5
23 5 53 1 28 -4 60 -8 71 -8z m-151 -73 c4 -41 2 -48 -13 -48 -34 0 -40 23
-18 70 22 49 24 48 31 -22z m61 13 l49 -49 -39 -11 c-21 -6 -41 -7 -45 -3 -7
7 -22 112 -16 112 1 0 25 -22 51 -49z"/>
<path d="M14429 5802 c-51 -33 -94 -80 -117 -129 -9 -18 -19 -33 -22 -33 -4 0
-39 23 -79 50 -40 28 -74 50 -77 50 -2 0 -4 -7 -4 -15 0 -8 33 -50 73 -93 73
-77 73 -77 75 -137 2 -33 11 -92 22 -131 l20 -72 -21 -57 c-19 -50 -69 -124
-92 -134 -4 -1 -16 -11 -25 -21 -22 -24 -140 -77 -210 -95 -29 -8 -100 -30
-158 -50 -57 -19 -116 -35 -130 -35 -27 0 -84 -26 -84 -38 0 -5 -16 -35 -36
-68 -20 -32 -43 -88 -52 -123 -14 -57 -23 -72 -80 -130 -80 -82 -123 -146
-157 -236 -35 -91 -157 -348 -169 -357 -6 -4 -23 -4 -38 -1 -26 5 -28 3 -28
-23 1 -24 28 -57 143 -175 78 -81 167 -163 197 -183 30 -20 98 -67 150 -106
52 -38 121 -84 153 -102 79 -45 139 -94 182 -150 l36 -48 -36 0 c-44 0 -41 8
-111 -255 -30 -115 -73 -275 -94 -355 -21 -80 -52 -196 -70 -259 -17 -62 -29
-118 -27 -124 4 -14 160 -9 169 6 4 6 14 43 23 82 9 38 19 78 22 88 4 15 19
17 136 17 l132 0 17 -58 c9 -32 20 -77 24 -100 l7 -42 108 0 c60 0 109 1 109
3 -2 15 -80 314 -170 652 -23 88 -52 201 -64 250 l-21 90 -38 3 c-32 3 -36 6
-32 25 3 12 9 43 15 69 12 58 108 216 158 259 51 45 92 59 170 59 38 0 73 5
80 12 8 8 10 3 5 -25 -8 -53 67 -365 85 -353 5 3 19 27 31 55 l24 50 -41 51
c-22 28 -43 63 -46 78 -5 28 -18 123 -18 132 0 3 -5 11 -10 18 -9 10 -6 14 10
19 12 3 22 13 22 23 0 9 9 25 20 35 20 18 21 18 35 -3 10 -14 31 -23 62 -28
41 -6 48 -4 64 17 14 18 19 20 19 8 0 -22 32 -49 58 -49 28 0 28 -23 2 -73
l-21 -38 32 -27 c18 -15 38 -31 44 -37 34 -30 65 -96 75 -160 6 -38 18 -87 27
-107 l16 -38 149 0 148 0 11 28 c6 15 12 40 14 55 2 15 14 45 26 65 139 232
188 368 205 570 7 86 3 94 -35 70 -15 -9 -23 -9 -35 1 -25 21 -56 136 -56 206
0 50 -6 74 -29 118 -39 74 -50 134 -45 247 3 74 0 106 -13 144 -16 45 -24 53
-78 81 -185 97 -247 135 -317 196 -42 37 -91 75 -107 84 -21 11 -31 23 -31 39
0 20 6 24 48 30 79 10 86 20 88 122 1 53 8 107 18 133 9 24 16 58 16 75 1 17
7 42 15 56 20 35 18 64 -5 102 -11 18 -20 43 -20 56 0 54 -76 166 -136 199
-12 7 -75 15 -140 18 l-119 6 -46 -29z m359 -1167 c3 -2 -24 -36 -58 -75 -47
-53 -60 -74 -50 -80 10 -6 6 -20 -18 -64 -38 -66 -38 -66 -11 -66 20 0 20 -1
2 -30 -9 -16 -21 -30 -26 -30 -20 0 -60 36 -82 75 -66 112 -5 241 130 276 28
7 104 3 113 -6z m103 -62 c45 -47 62 -91 57 -144 -10 -105 -94 -173 -211 -173
-31 1 -60 4 -63 7 -4 3 26 41 66 84 62 66 70 79 56 88 -14 11 -11 18 19 61 33
45 34 49 15 52 -23 4 -24 11 -9 46 14 29 28 25 70 -21z m-1000 -592 c15 -7 61
-48 104 -91 87 -87 94 -105 95 -243 0 -65 -14 -161 -26 -176 -2 -2 -16 6 -32
18 -17 12 -34 21 -39 21 -4 1 -42 24 -83 53 -69 48 -78 59 -132 157 -38 68
-80 126 -118 165 -33 33 -60 65 -60 71 0 16 60 69 115 102 l50 30 50 -47 c28
-26 62 -53 76 -60z m1148 -284 c23 -81 23 -84 7 -192 -25 -175 -32 -187 -40
-70 -3 55 -7 111 -8 125 -4 61 3 220 10 220 4 0 18 -37 31 -83z m-359 43 l35
-18 -83 5 c-75 5 -86 4 -113 -16 -17 -13 -33 -20 -36 -17 -8 8 27 46 52 57 35
14 109 9 145 -11z m80 -61 c0 -6 -4 -7 -10 -4 -5 3 -10 11 -10 16 0 6 5 7 10
4 6 -3 10 -11 10 -16z m-805 -949 c19 -80 38 -153 41 -162 5 -16 -3 -18 -81
-18 -66 0 -86 3 -82 13 2 7 22 81 42 165 21 83 39 151 41 149 1 -1 19 -67 39
-147z"/>
<path d="M6658 4406 c-10 -7 -18 -19 -18 -26 0 -8 6 -9 18 -4 9 5 36 8 60 7
45 -1 54 10 23 27 -27 14 -62 12 -83 -4z"/>
<path d="M6542 4188 c-6 -13 -18 -50 -26 -83 -8 -33 -18 -68 -22 -79 -6 -17
-5 -17 22 -3 16 8 46 17 67 21 l39 7 -7 42 c-4 23 -14 46 -21 50 -8 5 -12 12
-9 18 9 14 -5 49 -19 49 -7 0 -18 -10 -24 -22z"/>
<path d="M6766 4184 c-8 -22 1 -31 16 -16 9 9 9 15 1 23 -7 7 -12 5 -17 -7z"/>
<path d="M6610 4176 c0 -8 5 -18 10 -21 6 -3 10 3 10 14 0 12 -4 21 -10 21 -5
0 -10 -6 -10 -14z"/>
<path d="M4290 3930 c-8 -5 -25 -10 -38 -10 -21 0 -21 -2 -8 -22 8 -13 22 -47
31 -75 10 -29 21 -53 26 -53 5 0 9 34 9 75 0 43 4 75 10 75 6 0 10 5 10 10 0
13 -20 13 -40 0z"/>
<path d="M6509 3873 c-12 -22 -15 -53 -12 -132 2 -57 5 -106 7 -108 2 -3 13 1
24 8 27 17 39 138 21 209 -7 28 -15 50 -19 50 -3 0 -13 -12 -21 -27z"/>
<path d="M6895 3857 c-13 -73 5 -247 26 -247 4 0 28 37 53 83 l45 83 -58 61
-59 62 -7 -42z"/>
<path d="M8657 3886 c-9 -23 8 -106 31 -156 12 -25 22 -52 22 -61 0 -20 27
-56 35 -47 8 8 -19 169 -37 218 -22 61 -40 76 -51 46z"/>
<path d="M16822 3738 c-7 -7 -12 -16 -12 -20 0 -12 28 -10 36 3 10 17 -10 31
-24 17z"/>
<path d="M4566 3724 c-10 -26 -7 -154 4 -154 27 0 47 99 28 141 -15 33 -23 36
-32 13z"/>
<path d="M1701 3684 c0 -11 3 -14 6 -6 3 7 2 16 -1 19 -3 4 -6 -2 -5 -13z"/>
<path d="M1587 3620 c12 -19 27 -36 34 -39 7 -2 2 10 -10 27 -31 44 -50 53
-24 12z"/>
<path d="M1697 3598 c-4 -21 -15 -42 -25 -47 -16 -10 -16 -10 1 -11 20 0 40
42 35 74 -3 14 -6 9 -11 -16z"/>
<path d="M8235 3548 c-3 -18 -10 -51 -16 -73 -5 -22 -9 -105 -7 -185 l3 -145
94 -3 c52 -1 101 0 108 2 20 8 -2 46 -26 46 -32 0 -103 118 -137 229 -9 30
-12 66 -8 104 7 61 0 78 -11 25z"/>
<path d="M14552 3458 c-16 -16 -15 -38 4 -59 9 -10 17 -33 19 -51 2 -32 18
-84 36 -120 5 -10 9 -29 9 -42 0 -20 9 -28 44 -41 58 -22 100 -17 104 13 2 12
10 22 17 22 34 0 30 64 -4 73 -12 3 -23 17 -26 33 -6 25 -28 109 -41 152 -2 8
-15 12 -31 10 -26 -3 -28 -6 -26 -43 l2 -40 -19 24 c-11 13 -20 32 -20 42 0
12 -10 23 -26 29 -31 12 -28 12 -42 -2z"/>
<path d="M4138 3377 c-3 -16 -1 -46 5 -68 7 -31 6 -46 -4 -66 -11 -21 -11 -27
-1 -30 6 -3 12 -13 12 -24 0 -16 -7 -19 -45 -19 -41 0 -45 2 -45 24 0 13 -6
29 -14 36 -8 6 -16 25 -18 42 -2 18 -9 33 -15 36 -10 3 -13 -17 -13 -76 l0
-79 -52 -39 c-35 -27 -61 -58 -82 -98 -29 -56 -31 -67 -31 -165 0 -98 2 -110
27 -153 19 -31 47 -58 85 -82 50 -32 84 -45 230 -88 57 -17 83 -45 83 -89 0
-83 -96 -130 -188 -94 -46 19 -88 62 -98 101 -3 13 -9 24 -13 24 -3 0 -44 -10
-90 -22 l-83 -22 5 -33 c18 -109 120 -212 237 -241 35 -9 158 -8 199 1 81 19
159 82 203 167 17 34 24 65 26 131 4 101 -7 151 -48 207 -48 66 -90 88 -277
143 -99 28 -133 73 -101 132 19 37 40 46 102 47 56 0 61 -2 98 -40 21 -23 38
-47 38 -55 0 -21 12 -19 96 16 44 18 74 37 74 45 0 8 -9 32 -20 53 -41 81
-102 133 -187 160 -40 13 -43 17 -49 60 -4 25 -7 67 -7 94 0 26 -3 47 -7 47
-4 0 -11 10 -17 22 -10 22 -10 22 -15 -5z"/>
<path d="M1815 3350 c12 -70 16 -80 27 -80 16 0 3 79 -16 99 -15 14 -16 13
-11 -19z"/>
<path d="M1456 3353 c-4 -10 -15 -34 -26 -53 -15 -27 -18 -47 -13 -87 5 -44 3
-53 -10 -53 -14 0 -16 -40 -19 -379 l-3 -379 -25 -27 c-23 -24 -30 -26 -95
-24 l-70 2 -3 -93 c-1 -51 1 -97 6 -102 5 -5 44 -12 86 -15 153 -12 245 42
283 164 16 52 18 102 18 453 l0 395 -42 3 -41 3 5 59 c4 44 1 70 -13 104 -21
50 -28 55 -38 29z"/>
<path d="M14292 3210 c-19 -42 -12 -74 16 -78 13 -2 25 3 28 13 6 14 8 14 20
-2 7 -10 14 -13 14 -7 0 17 -28 69 -48 87 -16 15 -18 14 -30 -13z"/>
<path d="M7755 3156 c-128 -49 -214 -165 -250 -334 -32 -153 -12 -360 46 -474
93 -183 283 -256 452 -172 93 45 147 117 182 240 26 95 24 98 -75 105 -90 6
-110 0 -110 -35 -1 -70 -72 -146 -137 -146 -113 0 -162 118 -150 360 7 136 22
193 61 235 86 90 199 30 215 -113 7 -64 -8 -59 134 -46 74 7 77 8 77 32 0 14
-9 60 -21 101 -34 128 -107 214 -210 249 -44 15 -173 14 -214 -2z"/>
<path d="M15260 3149 c-79 -35 -126 -83 -169 -172 -122 -249 -84 -613 77 -759
116 -104 278 -101 381 6 19 20 38 36 43 36 4 0 10 -22 14 -50 l7 -50 48 0 49
0 -2 268 -3 267 -170 0 -170 0 0 -95 0 -95 79 -3 78 -3 -5 -36 c-8 -46 -45
-100 -80 -114 -79 -33 -161 21 -194 128 -25 81 -24 284 1 368 32 102 100 151
173 124 44 -17 69 -50 93 -120 11 -35 23 -53 31 -50 8 1 46 7 84 13 39 5 73
13 77 16 10 9 -17 124 -38 165 -60 115 -160 178 -286 176 -50 0 -87 -7 -118
-20z"/>
<path d="M2386 3145 c-10 -27 -7 -613 4 -709 18 -155 83 -242 209 -280 171
-51 360 19 422 156 l24 53 0 395 0 395 -80 0 -80 0 -5 -365 c-4 -265 -8 -371
-17 -387 -24 -41 -67 -63 -125 -63 -48 0 -60 4 -94 34 l-39 34 -5 373 -5 374
-101 3 c-86 2 -103 0 -108 -13z"/>
<path d="M6527 3154 c-7 -8 -10 -988 -3 -995 2 -2 47 -3 100 -1 l96 3 -2 497
-3 497 -90 3 c-50 1 -94 0 -98 -4z"/>
<path d="M10750 3151 c0 -6 5 -13 10 -16 6 -3 10 1 10 9 0 9 -4 16 -10 16 -5
0 -10 -4 -10 -9z"/>
<path d="M10992 3148 c-15 -15 -17 -968 -3 -983 6 -6 111 -8 268 -5 l258 5 0
95 0 95 -162 3 -163 2 0 394 c0 350 -2 395 -16 400 -29 11 -169 7 -182 -6z"/>
</g>
</svg>
